<svg width="167" height="103" viewBox="0 0 167 103" fill="none" xmlns="http://www.w3.org/2000/svg">
<rect x="68" y="32" width="52" height="52" fill="white"/>
<rect x="69.3" y="33.3" width="49.4" height="49.4" stroke="black" stroke-opacity="0.3" stroke-width="2.6"/>
<mask id="path-3-outside-1_4_27" maskUnits="userSpaceOnUse" x="23" y="58" width="56" height="30" fill="black">
<rect fill="white" x="23" y="58" width="56" height="30"/>
<path d="M42.56 80.8H30.4L28.16 87H24.32L34.4 59.28H38.6L48.64 87H44.8L42.56 80.8ZM41.52 77.84L36.48 63.76L31.44 77.84H41.52ZM56.6731 68.64C57.3131 67.3867 58.2198 66.4133 59.3931 65.72C60.5931 65.0267 62.0465 64.68 63.7531 64.68V68.44H62.7931C58.7131 68.44 56.6731 70.6533 56.6731 75.08V87H53.0331V65.08H56.6731V68.64ZM72.395 68.08V81C72.395 82.0667 72.6217 82.8267 73.075 83.28C73.5283 83.7067 74.315 83.92 75.435 83.92H78.115V87H74.835C72.8083 87 71.2883 86.5333 70.275 85.6C69.2617 84.6667 68.755 83.1333 68.755 81V68.08H65.915V65.08H68.755V59.56H72.395V65.08H78.115V68.08H72.395Z"/>
</mask>
<path d="M42.56 80.8H30.4L28.16 87H24.32L34.4 59.28H38.6L48.64 87H44.8L42.56 80.8ZM41.52 77.84L36.48 63.76L31.44 77.84H41.52ZM56.6731 68.64C57.3131 67.3867 58.2198 66.4133 59.3931 65.72C60.5931 65.0267 62.0465 64.68 63.7531 64.68V68.44H62.7931C58.7131 68.44 56.6731 70.6533 56.6731 75.08V87H53.0331V65.08H56.6731V68.64ZM72.395 68.08V81C72.395 82.0667 72.6217 82.8267 73.075 83.28C73.5283 83.7067 74.315 83.92 75.435 83.92H78.115V87H74.835C72.8083 87 71.2883 86.5333 70.275 85.6C69.2617 84.6667 68.755 83.1333 68.755 81V68.08H65.915V65.08H68.755V59.56H72.395V65.08H78.115V68.08H72.395Z" fill="black"/>
<path d="M42.56 80.8L43.1243 80.5961L42.9812 80.2H42.56V80.8ZM30.4 80.8V80.2H29.9788L29.8357 80.5961L30.4 80.8ZM28.16 87V87.6H28.5812L28.7243 87.2039L28.16 87ZM24.32 87L23.7561 86.795L23.4634 87.6H24.32V87ZM34.4 59.28V58.68H33.9797L33.8361 59.075L34.4 59.28ZM38.6 59.28L39.1641 59.0757L39.0208 58.68H38.6V59.28ZM48.64 87V87.6H49.4955L49.2041 86.7957L48.64 87ZM44.8 87L44.2357 87.2039L44.3788 87.6H44.8V87ZM41.52 77.84V78.44H42.3721L42.0849 77.6378L41.52 77.84ZM36.48 63.76L37.0449 63.5578L36.48 61.9797L35.9151 63.5578L36.48 63.76ZM31.44 77.84L30.8751 77.6378L30.5879 78.44H31.44V77.84ZM42.56 80.2H30.4V81.4H42.56V80.2ZM29.8357 80.5961L27.5957 86.7961L28.7243 87.2039L30.9643 81.0039L29.8357 80.5961ZM28.16 86.4H24.32V87.6H28.16V86.4ZM24.8839 87.205L34.9639 59.485L33.8361 59.075L23.7561 86.795L24.8839 87.205ZM34.4 59.88H38.6V58.68H34.4V59.88ZM38.0359 59.4843L48.0759 87.2043L49.2041 86.7957L39.1641 59.0757L38.0359 59.4843ZM48.64 86.4H44.8V87.6H48.64V86.4ZM45.3643 86.7961L43.1243 80.5961L41.9957 81.0039L44.2357 87.2039L45.3643 86.7961ZM42.0849 77.6378L37.0449 63.5578L35.9151 63.9622L40.9551 78.0422L42.0849 77.6378ZM35.9151 63.5578L30.8751 77.6378L32.0049 78.0422L37.0449 63.9622L35.9151 63.5578ZM31.44 78.44H41.52V77.24H31.44V78.44ZM56.6731 68.64H56.0731L57.2075 68.9129L56.6731 68.64ZM59.3931 65.72L59.0929 65.2005L59.0879 65.2034L59.3931 65.72ZM63.7531 64.68H64.3531V64.08H63.7531V64.68ZM63.7531 68.44V69.04H64.3531V68.44H63.7531ZM56.6731 87V87.6H57.2731V87H56.6731ZM53.0331 87H52.4331V87.6H53.0331V87ZM53.0331 65.08V64.48H52.4331V65.08H53.0331ZM56.6731 65.08H57.2731V64.48H56.6731V65.08ZM57.2075 68.9129C57.7975 67.7574 58.6263 66.8701 59.6984 66.2366L59.0879 65.2034C57.8133 65.9566 56.8287 67.016 56.1388 68.3671L57.2075 68.9129ZM59.6933 66.2395C60.7831 65.6098 62.1276 65.28 63.7531 65.28V64.08C61.9653 64.08 60.4031 64.4435 59.093 65.2005L59.6933 66.2395ZM63.1531 64.68V68.44H64.3531V64.68H63.1531ZM63.7531 67.84H62.7931V69.04H63.7531V67.84ZM62.7931 67.84C60.6475 67.84 58.9317 68.4243 57.7619 69.6934C56.6007 70.9532 56.0731 72.7858 56.0731 75.08H57.2731C57.2731 72.9476 57.7655 71.4601 58.6443 70.5066C59.5146 69.5624 60.8588 69.04 62.7931 69.04V67.84ZM56.0731 75.08V87H57.2731V75.08H56.0731ZM56.6731 86.4H53.0331V87.6H56.6731V86.4ZM53.6331 87V65.08H52.4331V87H53.6331ZM53.0331 65.68H56.6731V64.48H53.0331V65.68ZM56.0731 65.08V68.64H57.2731V65.08H56.0731ZM72.395 68.08V67.48H71.795V68.08H72.395ZM73.075 83.28L72.6507 83.7043L72.6572 83.7107L72.6638 83.7169L73.075 83.28ZM78.115 83.92H78.715V83.32H78.115V83.92ZM78.115 87V87.6H78.715V87H78.115ZM70.275 85.6L69.8685 86.0413L70.275 85.6ZM68.755 68.08H69.355V67.48H68.755V68.08ZM65.915 68.08H65.315V68.68H65.915V68.08ZM65.915 65.08V64.48H65.315V65.08H65.915ZM68.755 65.08V65.68H69.355V65.08H68.755ZM68.755 59.56V58.96H68.155V59.56H68.755ZM72.395 59.56H72.995V58.96H72.395V59.56ZM72.395 65.08H71.795V65.68H72.395V65.08ZM78.115 65.08H78.715V64.48H78.115V65.08ZM78.115 68.08V68.68H78.715V68.08H78.115ZM71.795 68.08V81H72.995V68.08H71.795ZM71.795 81C71.795 82.1258 72.0298 83.0834 72.6507 83.7043L73.4993 82.8557C73.2135 82.57 72.995 82.0075 72.995 81H71.795ZM72.6638 83.7169C73.2889 84.3053 74.2728 84.52 75.435 84.52V83.32C74.3573 83.32 73.7678 83.1081 73.4862 82.8431L72.6638 83.7169ZM75.435 84.52H78.115V83.32H75.435V84.52ZM77.515 83.92V87H78.715V83.92H77.515ZM78.115 86.4H74.835V87.6H78.115V86.4ZM74.835 86.4C72.8891 86.4 71.5416 85.9509 70.6815 85.1587L69.8685 86.0413C71.035 87.1158 72.7275 87.6 74.835 87.6V86.4ZM70.6815 85.1587C69.8454 84.3886 69.355 83.0565 69.355 81H68.155C68.155 83.2101 68.678 84.9448 69.8685 86.0413L70.6815 85.1587ZM69.355 81V68.08H68.155V81H69.355ZM68.755 67.48H65.915V68.68H68.755V67.48ZM66.515 68.08V65.08H65.315V68.08H66.515ZM65.915 65.68H68.755V64.48H65.915V65.68ZM69.355 65.08V59.56H68.155V65.08H69.355ZM68.755 60.16H72.395V58.96H68.755V60.16ZM71.795 59.56V65.08H72.995V59.56H71.795ZM72.395 65.68H78.115V64.48H72.395V65.68ZM77.515 65.08V68.08H78.715V65.08H77.515ZM78.115 67.48H72.395V68.68H78.115V67.48Z" fill="black" mask="url(#path-3-outside-1_4_27)"/>
<mask id="path-5-outside-2_4_27" maskUnits="userSpaceOnUse" x="80" y="52" width="28" height="13" fill="black">
<rect fill="white" x="80" y="52" width="28" height="13"/>
<path d="M80.9 55.885C80.97 54.965 81.325 54.245 81.965 53.725C82.605 53.205 83.435 52.945 84.455 52.945C85.135 52.945 85.72 53.07 86.21 53.32C86.71 53.56 87.085 53.89 87.335 54.31C87.595 54.73 87.725 55.205 87.725 55.735C87.725 56.355 87.545 56.89 87.185 57.34C86.835 57.79 86.375 58.08 85.805 58.21V58.285C86.455 58.445 86.97 58.76 87.35 59.23C87.73 59.7 87.92 60.315 87.92 61.075C87.92 61.645 87.79 62.16 87.53 62.62C87.27 63.07 86.88 63.425 86.36 63.685C85.84 63.945 85.215 64.075 84.485 64.075C83.425 64.075 82.555 63.8 81.875 63.25C81.195 62.69 80.815 61.9 80.735 60.88H82.055C82.125 61.48 82.37 61.97 82.79 62.35C83.21 62.73 83.77 62.92 84.47 62.92C85.17 62.92 85.7 62.74 86.06 62.38C86.43 62.01 86.615 61.535 86.615 60.955C86.615 60.205 86.365 59.665 85.865 59.335C85.365 59.005 84.61 58.84 83.6 58.84H83.255V57.7H83.615C84.535 57.69 85.23 57.54 85.7 57.25C86.17 56.95 86.405 56.49 86.405 55.87C86.405 55.34 86.23 54.915 85.88 54.595C85.54 54.275 85.05 54.115 84.41 54.115C83.79 54.115 83.29 54.275 82.91 54.595C82.53 54.915 82.305 55.345 82.235 55.885H80.9ZM95.808 55.735C95.588 54.625 94.903 54.07 93.753 54.07C92.863 54.07 92.198 54.415 91.758 55.105C91.318 55.785 91.103 56.91 91.113 58.48C91.343 57.96 91.723 57.555 92.253 57.265C92.793 56.965 93.393 56.815 94.053 56.815C95.083 56.815 95.903 57.135 96.513 57.775C97.133 58.415 97.443 59.3 97.443 60.43C97.443 61.11 97.308 61.72 97.038 62.26C96.778 62.8 96.378 63.23 95.838 63.55C95.308 63.87 94.663 64.03 93.903 64.03C92.873 64.03 92.068 63.8 91.488 63.34C90.908 62.88 90.503 62.245 90.273 61.435C90.043 60.625 89.928 59.625 89.928 58.435C89.928 54.765 91.208 52.93 93.768 52.93C94.748 52.93 95.518 53.195 96.078 53.725C96.638 54.255 96.968 54.925 97.068 55.735H95.808ZM93.768 57.97C93.338 57.97 92.933 58.06 92.553 58.24C92.173 58.41 91.863 58.675 91.623 59.035C91.393 59.385 91.278 59.815 91.278 60.325C91.278 61.085 91.498 61.705 91.938 62.185C92.378 62.655 93.008 62.89 93.828 62.89C94.528 62.89 95.083 62.675 95.493 62.245C95.913 61.805 96.123 61.215 96.123 60.475C96.123 59.695 95.923 59.085 95.523 58.645C95.123 58.195 94.538 57.97 93.768 57.97ZM99.2845 58.465C99.2845 56.745 99.5645 55.405 100.124 54.445C100.684 53.475 101.664 52.99 103.064 52.99C104.454 52.99 105.429 53.475 105.989 54.445C106.549 55.405 106.829 56.745 106.829 58.465C106.829 60.215 106.549 61.575 105.989 62.545C105.429 63.515 104.454 64 103.064 64C101.664 64 100.684 63.515 100.124 62.545C99.5645 61.575 99.2845 60.215 99.2845 58.465ZM105.479 58.465C105.479 57.595 105.419 56.86 105.299 56.26C105.189 55.65 104.954 55.16 104.594 54.79C104.244 54.42 103.734 54.235 103.064 54.235C102.384 54.235 101.864 54.42 101.504 54.79C101.154 55.16 100.919 55.65 100.799 56.26C100.689 56.86 100.634 57.595 100.634 58.465C100.634 59.365 100.689 60.12 100.799 60.73C100.919 61.34 101.154 61.83 101.504 62.2C101.864 62.57 102.384 62.755 103.064 62.755C103.734 62.755 104.244 62.57 104.594 62.2C104.954 61.83 105.189 61.34 105.299 60.73C105.419 60.12 105.479 59.365 105.479 58.465Z"/>
</mask>
<path d="M80.9 55.885C80.97 54.965 81.325 54.245 81.965 53.725C82.605 53.205 83.435 52.945 84.455 52.945C85.135 52.945 85.72 53.07 86.21 53.32C86.71 53.56 87.085 53.89 87.335 54.31C87.595 54.73 87.725 55.205 87.725 55.735C87.725 56.355 87.545 56.89 87.185 57.34C86.835 57.79 86.375 58.08 85.805 58.21V58.285C86.455 58.445 86.97 58.76 87.35 59.23C87.73 59.7 87.92 60.315 87.92 61.075C87.92 61.645 87.79 62.16 87.53 62.62C87.27 63.07 86.88 63.425 86.36 63.685C85.84 63.945 85.215 64.075 84.485 64.075C83.425 64.075 82.555 63.8 81.875 63.25C81.195 62.69 80.815 61.9 80.735 60.88H82.055C82.125 61.48 82.37 61.97 82.79 62.35C83.21 62.73 83.77 62.92 84.47 62.92C85.17 62.92 85.7 62.74 86.06 62.38C86.43 62.01 86.615 61.535 86.615 60.955C86.615 60.205 86.365 59.665 85.865 59.335C85.365 59.005 84.61 58.84 83.6 58.84H83.255V57.7H83.615C84.535 57.69 85.23 57.54 85.7 57.25C86.17 56.95 86.405 56.49 86.405 55.87C86.405 55.34 86.23 54.915 85.88 54.595C85.54 54.275 85.05 54.115 84.41 54.115C83.79 54.115 83.29 54.275 82.91 54.595C82.53 54.915 82.305 55.345 82.235 55.885H80.9ZM95.808 55.735C95.588 54.625 94.903 54.07 93.753 54.07C92.863 54.07 92.198 54.415 91.758 55.105C91.318 55.785 91.103 56.91 91.113 58.48C91.343 57.96 91.723 57.555 92.253 57.265C92.793 56.965 93.393 56.815 94.053 56.815C95.083 56.815 95.903 57.135 96.513 57.775C97.133 58.415 97.443 59.3 97.443 60.43C97.443 61.11 97.308 61.72 97.038 62.26C96.778 62.8 96.378 63.23 95.838 63.55C95.308 63.87 94.663 64.03 93.903 64.03C92.873 64.03 92.068 63.8 91.488 63.34C90.908 62.88 90.503 62.245 90.273 61.435C90.043 60.625 89.928 59.625 89.928 58.435C89.928 54.765 91.208 52.93 93.768 52.93C94.748 52.93 95.518 53.195 96.078 53.725C96.638 54.255 96.968 54.925 97.068 55.735H95.808ZM93.768 57.97C93.338 57.97 92.933 58.06 92.553 58.24C92.173 58.41 91.863 58.675 91.623 59.035C91.393 59.385 91.278 59.815 91.278 60.325C91.278 61.085 91.498 61.705 91.938 62.185C92.378 62.655 93.008 62.89 93.828 62.89C94.528 62.89 95.083 62.675 95.493 62.245C95.913 61.805 96.123 61.215 96.123 60.475C96.123 59.695 95.923 59.085 95.523 58.645C95.123 58.195 94.538 57.97 93.768 57.97ZM99.2845 58.465C99.2845 56.745 99.5645 55.405 100.124 54.445C100.684 53.475 101.664 52.99 103.064 52.99C104.454 52.99 105.429 53.475 105.989 54.445C106.549 55.405 106.829 56.745 106.829 58.465C106.829 60.215 106.549 61.575 105.989 62.545C105.429 63.515 104.454 64 103.064 64C101.664 64 100.684 63.515 100.124 62.545C99.5645 61.575 99.2845 60.215 99.2845 58.465ZM105.479 58.465C105.479 57.595 105.419 56.86 105.299 56.26C105.189 55.65 104.954 55.16 104.594 54.79C104.244 54.42 103.734 54.235 103.064 54.235C102.384 54.235 101.864 54.42 101.504 54.79C101.154 55.16 100.919 55.65 100.799 56.26C100.689 56.86 100.634 57.595 100.634 58.465C100.634 59.365 100.689 60.12 100.799 60.73C100.919 61.34 101.154 61.83 101.504 62.2C101.864 62.57 102.384 62.755 103.064 62.755C103.734 62.755 104.244 62.57 104.594 62.2C104.954 61.83 105.189 61.34 105.299 60.73C105.419 60.12 105.479 59.365 105.479 58.465Z" fill="black" fill-opacity="0.8"/>
<path d="M80.9 55.885L80.6009 55.8622L80.5763 56.185H80.9V55.885ZM81.965 53.725L81.7758 53.4922L81.7758 53.4922L81.965 53.725ZM86.21 53.32L86.0736 53.5873L86.0802 53.5905L86.21 53.32ZM87.335 54.31L87.0772 54.4635L87.0799 54.4679L87.335 54.31ZM87.185 57.34L86.9507 57.1526L86.9482 57.1558L87.185 57.34ZM85.805 58.21L85.7383 57.9175L85.505 57.9707V58.21H85.805ZM85.805 58.285H85.505V58.5201L85.7333 58.5763L85.805 58.285ZM87.35 59.23L87.5833 59.0414L87.35 59.23ZM87.53 62.62L87.7898 62.7701L87.7912 62.7676L87.53 62.62ZM86.36 63.685L86.4942 63.9533L86.4942 63.9533L86.36 63.685ZM81.875 63.25L81.6843 63.4816L81.6863 63.4833L81.875 63.25ZM80.735 60.88V60.58H80.4105L80.4359 60.9035L80.735 60.88ZM82.055 60.88L82.353 60.8452L82.322 60.58H82.055V60.88ZM82.79 62.35L82.5887 62.5725L82.5887 62.5725L82.79 62.35ZM86.06 62.38L85.8479 62.1679L85.8479 62.1679L86.06 62.38ZM85.865 59.335L86.0303 59.0846L86.0303 59.0846L85.865 59.335ZM83.255 58.84H82.955V59.14H83.255V58.84ZM83.255 57.7V57.4H82.955V57.7H83.255ZM83.615 57.7V58L83.6183 58L83.615 57.7ZM85.7 57.25L85.8576 57.5053L85.8614 57.5029L85.7 57.25ZM85.88 54.595L85.6744 54.8135L85.6776 54.8164L85.88 54.595ZM82.235 55.885V56.185H82.4986L82.5325 55.9236L82.235 55.885ZM81.1991 55.9078C81.2637 55.0591 81.586 54.4194 82.1542 53.9578L81.7758 53.4922C81.064 54.0706 80.6763 54.8709 80.6009 55.8622L81.1991 55.9078ZM82.1542 53.9578C82.729 53.4908 83.4871 53.245 84.455 53.245V52.645C83.3829 52.645 82.481 52.9192 81.7758 53.4922L82.1542 53.9578ZM84.455 53.245C85.0986 53.245 85.6347 53.3633 86.0737 53.5872L86.3463 53.0528C85.8053 52.7767 85.1714 52.645 84.455 52.645V53.245ZM86.0802 53.5905C86.5343 53.8085 86.8614 54.1008 87.0772 54.4634L87.5928 54.1566C87.3086 53.6792 86.8857 53.3115 86.3398 53.0495L86.0802 53.5905ZM87.0799 54.4679C87.3084 54.837 87.425 55.2566 87.425 55.735H88.025C88.025 55.1534 87.8816 54.623 87.5901 54.1521L87.0799 54.4679ZM87.425 55.735C87.425 56.2924 87.2649 56.76 86.9507 57.1526L87.4193 57.5274C87.8251 57.02 88.025 56.4176 88.025 55.735H87.425ZM86.9482 57.1558C86.6419 57.5497 86.2427 57.8025 85.7383 57.9175L85.8717 58.5025C86.5073 58.3575 87.0281 58.0303 87.4218 57.5242L86.9482 57.1558ZM85.505 58.21V58.285H86.105V58.21H85.505ZM85.7333 58.5763C86.3269 58.7224 86.7824 59.0051 87.1167 59.4186L87.5833 59.0414C87.1576 58.5149 86.5831 58.1676 85.8767 57.9937L85.7333 58.5763ZM87.1167 59.4186C87.4434 59.8227 87.62 60.3656 87.62 61.075H88.22C88.22 60.2644 88.0166 59.5773 87.5833 59.0414L87.1167 59.4186ZM87.62 61.075C87.62 61.5975 87.5014 62.0609 87.2688 62.4724L87.7912 62.7676C88.0786 62.2591 88.22 61.6925 88.22 61.075H87.62ZM87.2702 62.4699C87.043 62.8631 86.6998 63.1797 86.2258 63.4167L86.4942 63.9533C87.0602 63.6703 87.497 63.2769 87.7898 62.7701L87.2702 62.4699ZM86.2258 63.4167C85.7568 63.6512 85.18 63.775 84.485 63.775V64.375C85.25 64.375 85.9232 64.2388 86.4942 63.9533L86.2258 63.4167ZM84.485 63.775C83.4786 63.775 82.6796 63.515 82.0637 63.0167L81.6863 63.4833C82.4304 64.085 83.3714 64.375 84.485 64.375V63.775ZM82.0657 63.0184C81.4588 62.5186 81.1088 61.8096 81.0341 60.8565L80.4359 60.9035C80.5212 61.9904 80.9312 62.8614 81.6843 63.4816L82.0657 63.0184ZM80.735 61.18H82.055V60.58H80.735V61.18ZM81.757 60.9148C81.8348 61.5818 82.111 62.1403 82.5887 62.5725L82.9913 62.1275C82.629 61.7997 82.4152 61.3782 82.353 60.8452L81.757 60.9148ZM82.5887 62.5725C83.0761 63.0134 83.7139 63.22 84.47 63.22V62.62C83.8261 62.62 83.3439 62.4466 82.9913 62.1275L82.5887 62.5725ZM84.47 63.22C85.2191 63.22 85.8375 63.0268 86.2721 62.5921L85.8479 62.1679C85.5625 62.4532 85.1209 62.62 84.47 62.62V63.22ZM86.2721 62.5921C86.7047 62.1595 86.915 61.6051 86.915 60.955H86.315C86.315 61.4649 86.1553 61.8605 85.8479 62.1679L86.2721 62.5921ZM86.915 60.955C86.915 60.133 86.6359 59.4843 86.0303 59.0846L85.6997 59.5854C86.0941 59.8457 86.315 60.277 86.315 60.955H86.915ZM86.0303 59.0846C85.458 58.7069 84.6328 58.54 83.6 58.54V59.14C84.5872 59.14 85.272 59.3031 85.6997 59.5854L86.0303 59.0846ZM83.6 58.54H83.255V59.14H83.6V58.54ZM83.555 58.84V57.7H82.955V58.84H83.555ZM83.255 58H83.615V57.4H83.255V58ZM83.6183 58C84.5605 57.9897 85.3197 57.8372 85.8575 57.5053L85.5425 56.9947C85.1403 57.2428 84.5095 57.3903 83.6117 57.4L83.6183 58ZM85.8614 57.5029C86.4286 57.1408 86.705 56.5788 86.705 55.87H86.105C86.105 56.4012 85.9114 56.7592 85.5386 56.9971L85.8614 57.5029ZM86.705 55.87C86.705 55.2668 86.5023 54.7574 86.0824 54.3736L85.6776 54.8164C85.9577 55.0726 86.105 55.4132 86.105 55.87H86.705ZM86.0856 54.3765C85.6721 53.9873 85.0977 53.815 84.41 53.815V54.415C85.0023 54.415 85.4079 54.5627 85.6744 54.8135L86.0856 54.3765ZM84.41 53.815C83.7374 53.815 83.1632 53.9896 82.7168 54.3655L83.1032 54.8245C83.4168 54.5604 83.8426 54.415 84.41 54.415V53.815ZM82.7168 54.3655C82.2736 54.7387 82.0161 55.2398 81.9375 55.8464L82.5325 55.9236C82.5939 55.4502 82.7864 55.0913 83.1032 54.8245L82.7168 54.3655ZM82.235 55.585H80.9V56.185H82.235V55.585ZM95.808 55.735L95.5137 55.7933L95.5616 56.035H95.808V55.735ZM91.758 55.105L92.0099 55.268L92.011 55.2663L91.758 55.105ZM91.113 58.48L90.813 58.4819L91.3874 58.6014L91.113 58.48ZM92.253 57.265L92.397 57.5282L92.3987 57.5272L92.253 57.265ZM96.513 57.775L96.2958 57.982L96.2975 57.9837L96.513 57.775ZM97.038 62.26L96.7697 62.1258L96.7677 62.1299L97.038 62.26ZM95.838 63.55L95.6851 63.2919L95.6829 63.2932L95.838 63.55ZM91.488 63.34L91.3016 63.575L91.3016 63.575L91.488 63.34ZM90.273 61.435L89.9844 61.5169L89.9844 61.5169L90.273 61.435ZM96.078 53.725L96.2842 53.5071L96.2842 53.5071L96.078 53.725ZM97.068 55.735V56.035H97.4073L97.3657 55.6982L97.068 55.735ZM92.553 58.24L92.6755 58.5139L92.6814 58.5111L92.553 58.24ZM91.623 59.035L91.3734 58.8686L91.3723 58.8702L91.623 59.035ZM91.938 62.185L91.7168 62.3877L91.719 62.39L91.938 62.185ZM95.493 62.245L95.276 62.0379L95.2759 62.038L95.493 62.245ZM95.523 58.645L95.2988 58.8443L95.301 58.8468L95.523 58.645ZM96.1023 55.6767C95.9826 55.0728 95.729 54.5861 95.3181 54.2532C94.9078 53.9207 94.3756 53.77 93.753 53.77V54.37C94.2804 54.37 94.6657 54.4968 94.9404 54.7193C95.2145 54.9414 95.4134 55.2872 95.5137 55.7933L96.1023 55.6767ZM93.753 53.77C92.7712 53.77 92.0057 54.1586 91.5051 54.9437L92.011 55.2663C92.3903 54.6714 92.9548 54.37 93.753 54.37V53.77ZM91.5061 54.942C91.0163 55.6991 90.8029 56.8994 90.813 58.4819L91.413 58.4781C91.4031 56.9206 91.6198 55.8709 92.0099 55.268L91.5061 54.942ZM91.3874 58.6014C91.589 58.1456 91.921 57.7886 92.397 57.5282L92.109 57.0018C91.525 57.3214 91.0971 57.7744 90.8386 58.3586L91.3874 58.6014ZM92.3987 57.5272C92.8911 57.2537 93.4404 57.115 94.053 57.115V56.515C93.3456 56.515 92.6949 56.6763 92.1073 57.0028L92.3987 57.5272ZM94.053 57.115C95.0157 57.115 95.7519 57.4113 96.2958 57.982L96.7302 57.568C96.0541 56.8587 95.1503 56.515 94.053 56.515V57.115ZM96.2975 57.9837C96.8498 58.5538 97.143 59.3561 97.143 60.43H97.743C97.743 59.2439 97.4162 58.2762 96.7285 57.5663L96.2975 57.9837ZM97.143 60.43C97.143 61.0694 97.0164 61.6325 96.7697 62.1258L97.3063 62.3942C97.5997 61.8075 97.743 61.1506 97.743 60.43H97.143ZM96.7677 62.1299C96.5346 62.614 96.1767 63.0006 95.6851 63.2919L95.9909 63.8081C96.5793 63.4594 97.0214 62.986 97.3083 62.3901L96.7677 62.1299ZM95.6829 63.2932C95.2093 63.5791 94.6208 63.73 93.903 63.73V64.33C94.7053 64.33 95.4067 64.1609 95.9931 63.8068L95.6829 63.2932ZM93.903 63.73C92.9146 63.73 92.184 63.5091 91.6744 63.105L91.3016 63.575C91.952 64.0909 92.8314 64.33 93.903 64.33V63.73ZM91.6744 63.105C91.1503 62.6893 90.7769 62.1112 90.5616 61.3531L89.9844 61.5169C90.2291 62.3788 90.6657 63.0707 91.3016 63.575L91.6744 63.105ZM90.5616 61.3531C90.3416 60.5782 90.228 59.6077 90.228 58.435H89.628C89.628 59.6423 89.7444 60.6718 89.9844 61.5169L90.5616 61.3531ZM90.228 58.435C90.228 56.6257 90.5452 55.3221 91.1341 54.4779C91.7092 53.6534 92.5697 53.23 93.768 53.23V52.63C92.4063 52.63 91.3468 53.1241 90.642 54.1346C89.9508 55.1254 89.628 56.5743 89.628 58.435H90.228ZM93.768 53.23C94.693 53.23 95.3815 53.4788 95.8718 53.9429L96.2842 53.5071C95.6546 52.9112 94.8031 52.63 93.768 52.63V53.23ZM95.8718 53.9429C96.3781 54.422 96.6783 55.0266 96.7703 55.7718L97.3657 55.6982C97.2577 54.8234 96.898 54.088 96.2842 53.5071L95.8718 53.9429ZM97.068 55.435H95.808V56.035H97.068V55.435ZM93.768 57.67C93.2946 57.67 92.8457 57.7694 92.4246 57.9689L92.6814 58.5111C93.0204 58.3506 93.3814 58.27 93.768 58.27V57.67ZM92.4305 57.9662C91.9967 58.1602 91.6435 58.4635 91.3734 58.8686L91.8726 59.2014C92.0825 58.8865 92.3493 58.6598 92.6755 58.5138L92.4305 57.9662ZM91.3723 58.8702C91.1037 59.2789 90.978 59.7693 90.978 60.325H91.578C91.578 59.8607 91.6823 59.4911 91.8737 59.1998L91.3723 58.8702ZM90.978 60.325C90.978 61.1467 91.2178 61.8433 91.7169 62.3877L92.1592 61.9823C91.7782 61.5667 91.578 61.0233 91.578 60.325H90.978ZM91.719 62.39C92.2303 62.9362 92.9491 63.19 93.828 63.19V62.59C93.0669 62.59 92.5257 62.3738 92.157 61.98L91.719 62.39ZM93.828 63.19C94.5942 63.19 95.2334 62.952 95.7101 62.452L95.2759 62.038C94.9326 62.398 94.4618 62.59 93.828 62.59V63.19ZM95.71 62.4521C96.1944 61.9447 96.423 61.2745 96.423 60.475H95.823C95.823 61.1555 95.6317 61.6653 95.276 62.0379L95.71 62.4521ZM96.423 60.475C96.423 59.6442 96.2092 58.9538 95.745 58.4432L95.301 58.8468C95.6368 59.2162 95.823 59.7458 95.823 60.475H96.423ZM95.7472 58.4457C95.2753 57.9148 94.5982 57.67 93.768 57.67V58.27C94.4778 58.27 94.9707 58.4752 95.2988 58.8443L95.7472 58.4457ZM100.124 54.445L100.384 54.5962L100.384 54.595L100.124 54.445ZM105.989 54.445L105.73 54.595L105.73 54.5962L105.989 54.445ZM100.124 62.545L100.384 62.395L100.384 62.395L100.124 62.545ZM105.299 56.26L105.004 56.3132L105.005 56.3188L105.299 56.26ZM104.594 54.79L104.377 54.9962L104.379 54.9992L104.594 54.79ZM101.504 54.79L101.289 54.5808L101.287 54.5838L101.504 54.79ZM100.799 56.26L100.505 56.2021L100.504 56.2059L100.799 56.26ZM100.799 60.73L100.504 60.7832L100.505 60.7879L100.799 60.73ZM101.504 62.2L101.287 62.4062L101.289 62.4092L101.504 62.2ZM104.594 62.2L104.379 61.9908L104.377 61.9938L104.594 62.2ZM105.299 60.73L105.005 60.6721L105.004 60.6768L105.299 60.73ZM99.5845 58.465C99.5845 56.7715 99.8612 55.4917 100.384 54.5962L99.8654 54.2938C99.2678 55.3183 98.9845 56.7185 98.9845 58.465H99.5845ZM100.384 54.595C100.877 53.742 101.74 53.29 103.064 53.29V52.69C101.589 52.69 100.492 53.208 99.8647 54.295L100.384 54.595ZM103.064 53.29C104.377 53.29 105.237 53.7413 105.73 54.595L106.249 54.295C105.622 53.2087 104.532 52.69 103.064 52.69V53.29ZM105.73 54.5962C106.253 55.4917 106.529 56.7715 106.529 58.465H107.129C107.129 56.7185 106.846 55.3183 106.249 54.2938L105.73 54.5962ZM106.529 58.465C106.529 60.1893 106.253 61.4894 105.73 62.395L106.249 62.695C106.846 61.6606 107.129 60.2407 107.129 58.465H106.529ZM105.73 62.395C105.237 63.2487 104.377 63.7 103.064 63.7V64.3C104.532 64.3 105.622 63.7813 106.249 62.695L105.73 62.395ZM103.064 63.7C101.74 63.7 100.877 63.248 100.384 62.395L99.8647 62.695C100.492 63.782 101.589 64.3 103.064 64.3V63.7ZM100.384 62.395C99.8615 61.4894 99.5845 60.1893 99.5845 58.465H98.9845C98.9845 60.2407 99.2675 61.6606 99.8647 62.695L100.384 62.395ZM105.779 58.465C105.779 57.5828 105.719 56.8267 105.594 56.2012L105.005 56.3188C105.12 56.8933 105.179 57.6072 105.179 58.465H105.779ZM105.595 56.2068C105.476 55.5499 105.219 55.0016 104.81 54.5808L104.379 54.9992C104.69 55.3184 104.903 55.7501 105.004 56.3132L105.595 56.2068ZM104.812 54.5838C104.389 54.1367 103.79 53.935 103.064 53.935V54.535C103.679 54.535 104.1 54.7033 104.377 54.9962L104.812 54.5838ZM103.064 53.935C102.33 53.935 101.722 54.136 101.289 54.5808L101.72 54.9992C102.007 54.704 102.439 54.535 103.064 54.535V53.935ZM101.287 54.5838C100.89 55.0033 100.634 55.5488 100.505 56.2021L101.094 56.3179C101.205 55.7512 101.419 55.3167 101.722 54.9962L101.287 54.5838ZM100.504 56.2059C100.39 56.8295 100.334 57.5838 100.334 58.465H100.934C100.934 57.6062 100.989 56.8905 101.095 56.3141L100.504 56.2059ZM100.334 58.465C100.334 59.3756 100.39 60.1498 100.504 60.7832L101.095 60.6768C100.989 60.0902 100.934 59.3544 100.934 58.465H100.334ZM100.505 60.7879C100.634 61.4412 100.89 61.9867 101.287 62.4062L101.722 61.9938C101.419 61.6733 101.205 61.2388 101.094 60.6721L100.505 60.7879ZM101.289 62.4092C101.722 62.854 102.33 63.055 103.064 63.055V62.455C102.439 62.455 102.007 62.286 101.72 61.9908L101.289 62.4092ZM103.064 63.055C103.79 63.055 104.389 62.8533 104.812 62.4062L104.377 61.9938C104.1 62.2867 103.679 62.455 103.064 62.455V63.055ZM104.81 62.4092C105.219 61.9884 105.476 61.4401 105.595 60.7832L105.004 60.6768C104.903 61.2399 104.69 61.6716 104.379 61.9908L104.81 62.4092ZM105.594 60.7879C105.719 60.1524 105.779 59.3766 105.779 58.465H105.179C105.179 59.3534 105.12 60.0876 105.005 60.6721L105.594 60.7879Z" fill="black" fill-opacity="0.8" mask="url(#path-5-outside-2_4_27)"/>
<mask id="path-7-outside-3_4_27" maskUnits="userSpaceOnUse" x="2" y="12" width="132" height="43" fill="black">
<rect fill="white" x="2" y="12" width="132" height="43"/>
<path d="M31.36 16.32V44H27.72V23.36L18.52 44H15.96L6.72 23.32V44H3.08V16.32H7L17.24 39.2L27.48 16.32H31.36ZM56.4131 22.08L43.2131 54.32H39.4531L43.7731 43.76L34.9331 22.08H38.9731L45.8531 39.84L52.6531 22.08H56.4131ZM63.7122 25.64C64.3522 24.3867 65.2589 23.4133 66.4322 22.72C67.6322 22.0267 69.0855 21.68 70.7922 21.68V25.44H69.8322C65.7522 25.44 63.7122 27.6533 63.7122 32.08V44H60.0722V22.08H63.7122V25.64ZM76.8741 18.52C76.1807 18.52 75.5941 18.28 75.1141 17.8C74.6341 17.32 74.3941 16.7333 74.3941 16.04C74.3941 15.3467 74.6341 14.76 75.1141 14.28C75.5941 13.8 76.1807 13.56 76.8741 13.56C77.5407 13.56 78.1007 13.8 78.5541 14.28C79.0341 14.76 79.2741 15.3467 79.2741 16.04C79.2741 16.7333 79.0341 17.32 78.5541 17.8C78.1007 18.28 77.5407 18.52 76.8741 18.52ZM78.6341 22.08V44H74.9941V22.08H78.6341ZM83.4778 32.96C83.4778 30.72 83.9311 28.76 84.8378 27.08C85.7445 25.3733 86.9845 24.0533 88.5578 23.12C90.1578 22.1867 91.9311 21.72 93.8778 21.72C95.7978 21.72 97.4645 22.1333 98.8778 22.96C100.291 23.7867 101.344 24.8267 102.038 26.08V22.08H105.718V44H102.038V39.92C101.318 41.2 100.238 42.2667 98.7978 43.12C97.3845 43.9467 95.7311 44.36 93.8378 44.36C91.8911 44.36 90.1311 43.88 88.5578 42.92C86.9845 41.96 85.7445 40.6133 84.8378 38.88C83.9311 37.1467 83.4778 35.1733 83.4778 32.96ZM102.038 33C102.038 31.3467 101.704 29.9067 101.038 28.68C100.371 27.4533 99.4645 26.52 98.3178 25.88C97.1978 25.2133 95.9578 24.88 94.5978 24.88C93.2378 24.88 91.9978 25.2 90.8778 25.84C89.7578 26.48 88.8645 27.4133 88.1978 28.64C87.5311 29.8667 87.1978 31.3067 87.1978 32.96C87.1978 34.64 87.5311 36.1067 88.1978 37.36C88.8645 38.5867 89.7578 39.5333 90.8778 40.2C91.9978 40.84 93.2378 41.16 94.5978 41.16C95.9578 41.16 97.1978 40.84 98.3178 40.2C99.4645 39.5333 100.371 38.5867 101.038 37.36C101.704 36.1067 102.038 34.6533 102.038 33ZM110.509 32.96C110.509 30.72 110.962 28.76 111.869 27.08C112.776 25.3733 114.016 24.0533 115.589 23.12C117.189 22.1867 118.976 21.72 120.949 21.72C122.656 21.72 124.242 22.12 125.709 22.92C127.176 23.6933 128.296 24.72 129.069 26V14.4H132.749V44H129.069V39.88C128.349 41.1867 127.282 42.2667 125.869 43.12C124.456 43.9467 122.802 44.36 120.909 44.36C118.962 44.36 117.189 43.88 115.589 42.92C114.016 41.96 112.776 40.6133 111.869 38.88C110.962 37.1467 110.509 35.1733 110.509 32.96ZM129.069 33C129.069 31.3467 128.736 29.9067 128.069 28.68C127.402 27.4533 126.496 26.52 125.349 25.88C124.229 25.2133 122.989 24.88 121.629 24.88C120.269 24.88 119.029 25.2 117.909 25.84C116.789 26.48 115.896 27.4133 115.229 28.64C114.562 29.8667 114.229 31.3067 114.229 32.96C114.229 34.64 114.562 36.1067 115.229 37.36C115.896 38.5867 116.789 39.5333 117.909 40.2C119.029 40.84 120.269 41.16 121.629 41.16C122.989 41.16 124.229 40.84 125.349 40.2C126.496 39.5333 127.402 38.5867 128.069 37.36C128.736 36.1067 129.069 34.6533 129.069 33Z"/>
</mask>
<path d="M31.36 16.32V44H27.72V23.36L18.52 44H15.96L6.72 23.32V44H3.08V16.32H7L17.24 39.2L27.48 16.32H31.36ZM56.4131 22.08L43.2131 54.32H39.4531L43.7731 43.76L34.9331 22.08H38.9731L45.8531 39.84L52.6531 22.08H56.4131ZM63.7122 25.64C64.3522 24.3867 65.2589 23.4133 66.4322 22.72C67.6322 22.0267 69.0855 21.68 70.7922 21.68V25.44H69.8322C65.7522 25.44 63.7122 27.6533 63.7122 32.08V44H60.0722V22.08H63.7122V25.64ZM76.8741 18.52C76.1807 18.52 75.5941 18.28 75.1141 17.8C74.6341 17.32 74.3941 16.7333 74.3941 16.04C74.3941 15.3467 74.6341 14.76 75.1141 14.28C75.5941 13.8 76.1807 13.56 76.8741 13.56C77.5407 13.56 78.1007 13.8 78.5541 14.28C79.0341 14.76 79.2741 15.3467 79.2741 16.04C79.2741 16.7333 79.0341 17.32 78.5541 17.8C78.1007 18.28 77.5407 18.52 76.8741 18.52ZM78.6341 22.08V44H74.9941V22.08H78.6341ZM83.4778 32.96C83.4778 30.72 83.9311 28.76 84.8378 27.08C85.7445 25.3733 86.9845 24.0533 88.5578 23.12C90.1578 22.1867 91.9311 21.72 93.8778 21.72C95.7978 21.72 97.4645 22.1333 98.8778 22.96C100.291 23.7867 101.344 24.8267 102.038 26.08V22.08H105.718V44H102.038V39.92C101.318 41.2 100.238 42.2667 98.7978 43.12C97.3845 43.9467 95.7311 44.36 93.8378 44.36C91.8911 44.36 90.1311 43.88 88.5578 42.92C86.9845 41.96 85.7445 40.6133 84.8378 38.88C83.9311 37.1467 83.4778 35.1733 83.4778 32.96ZM102.038 33C102.038 31.3467 101.704 29.9067 101.038 28.68C100.371 27.4533 99.4645 26.52 98.3178 25.88C97.1978 25.2133 95.9578 24.88 94.5978 24.88C93.2378 24.88 91.9978 25.2 90.8778 25.84C89.7578 26.48 88.8645 27.4133 88.1978 28.64C87.5311 29.8667 87.1978 31.3067 87.1978 32.96C87.1978 34.64 87.5311 36.1067 88.1978 37.36C88.8645 38.5867 89.7578 39.5333 90.8778 40.2C91.9978 40.84 93.2378 41.16 94.5978 41.16C95.9578 41.16 97.1978 40.84 98.3178 40.2C99.4645 39.5333 100.371 38.5867 101.038 37.36C101.704 36.1067 102.038 34.6533 102.038 33ZM110.509 32.96C110.509 30.72 110.962 28.76 111.869 27.08C112.776 25.3733 114.016 24.0533 115.589 23.12C117.189 22.1867 118.976 21.72 120.949 21.72C122.656 21.72 124.242 22.12 125.709 22.92C127.176 23.6933 128.296 24.72 129.069 26V14.4H132.749V44H129.069V39.88C128.349 41.1867 127.282 42.2667 125.869 43.12C124.456 43.9467 122.802 44.36 120.909 44.36C118.962 44.36 117.189 43.88 115.589 42.92C114.016 41.96 112.776 40.6133 111.869 38.88C110.962 37.1467 110.509 35.1733 110.509 32.96ZM129.069 33C129.069 31.3467 128.736 29.9067 128.069 28.68C127.402 27.4533 126.496 26.52 125.349 25.88C124.229 25.2133 122.989 24.88 121.629 24.88C120.269 24.88 119.029 25.2 117.909 25.84C116.789 26.48 115.896 27.4133 115.229 28.64C114.562 29.8667 114.229 31.3067 114.229 32.96C114.229 34.64 114.562 36.1067 115.229 37.36C115.896 38.5867 116.789 39.5333 117.909 40.2C119.029 40.84 120.269 41.16 121.629 41.16C122.989 41.16 124.229 40.84 125.349 40.2C126.496 39.5333 127.402 38.5867 128.069 37.36C128.736 36.1067 129.069 34.6533 129.069 33Z" fill="black"/>
<path d="M31.36 16.32H31.96V15.72H31.36V16.32ZM31.36 44V44.6H31.96V44H31.36ZM27.72 44H27.12V44.6H27.72V44ZM27.72 23.36H28.32L27.172 23.1157L27.72 23.36ZM18.52 44V44.6H18.9095L19.068 44.2443L18.52 44ZM15.96 44L15.4122 44.2448L15.5709 44.6H15.96V44ZM6.72 23.32L7.26781 23.0752L6.12 23.32H6.72ZM6.72 44V44.6H7.32V44H6.72ZM3.08 44H2.48V44.6H3.08V44ZM3.08 16.32V15.72H2.48V16.32H3.08ZM7 16.32L7.54765 16.0749L7.38882 15.72H7V16.32ZM17.24 39.2L16.6923 39.4451L17.24 40.6688L17.7877 39.4451L17.24 39.2ZM27.48 16.32V15.72H27.0912L26.9323 16.0749L27.48 16.32ZM30.76 16.32V44H31.96V16.32H30.76ZM31.36 43.4H27.72V44.6H31.36V43.4ZM28.32 44V23.36H27.12V44H28.32ZM27.172 23.1157L17.972 43.7557L19.068 44.2443L28.268 23.6043L27.172 23.1157ZM18.52 43.4H15.96V44.6H18.52V43.4ZM16.5078 43.7552L7.26781 23.0752L6.1722 23.5648L15.4122 44.2448L16.5078 43.7552ZM6.12 23.32V44H7.32V23.32H6.12ZM6.72 43.4H3.08V44.6H6.72V43.4ZM3.68 44V16.32H2.48V44H3.68ZM3.08 16.92H7V15.72H3.08V16.92ZM6.45235 16.5651L16.6923 39.4451L17.7877 38.9549L7.54765 16.0749L6.45235 16.5651ZM17.7877 39.4451L28.0277 16.5651L26.9323 16.0749L16.6923 38.9549L17.7877 39.4451ZM27.48 16.92H31.36V15.72H27.48V16.92ZM56.4131 22.08L56.9684 22.3073L57.3071 21.48H56.4131V22.08ZM43.2131 54.32V54.92H43.6158L43.7684 54.5473L43.2131 54.32ZM39.4531 54.32L38.8978 54.0928L38.5594 54.92H39.4531V54.32ZM43.7731 43.76L44.3285 43.9872L44.4212 43.7604L44.3287 43.5335L43.7731 43.76ZM34.9331 22.08V21.48H34.0405L34.3775 22.3065L34.9331 22.08ZM38.9731 22.08L39.5326 21.8633L39.3841 21.48H38.9731V22.08ZM45.8531 39.84L45.2936 40.0567L45.8564 41.5094L46.4135 40.0545L45.8531 39.84ZM52.6531 22.08V21.48H52.2404L52.0928 21.8655L52.6531 22.08ZM55.8579 21.8527L42.6579 54.0927L43.7684 54.5473L56.9684 22.3073L55.8579 21.8527ZM43.2131 53.72H39.4531V54.92H43.2131V53.72ZM40.0085 54.5472L44.3285 43.9872L43.2178 43.5328L38.8978 54.0928L40.0085 54.5472ZM44.3287 43.5335L35.4887 21.8535L34.3775 22.3065L43.2175 43.9865L44.3287 43.5335ZM34.9331 22.68H38.9731V21.48H34.9331V22.68ZM38.4136 22.2967L45.2936 40.0567L46.4126 39.6233L39.5326 21.8633L38.4136 22.2967ZM46.4135 40.0545L53.2135 22.2945L52.0928 21.8655L45.2928 39.6255L46.4135 40.0545ZM52.6531 22.68H56.4131V21.48H52.6531V22.68ZM63.7122 25.64H63.1122L64.2466 25.9129L63.7122 25.64ZM66.4322 22.72L66.132 22.2005L66.127 22.2034L66.4322 22.72ZM70.7922 21.68H71.3922V21.08H70.7922V21.68ZM70.7922 25.44V26.04H71.3922V25.44H70.7922ZM63.7122 44V44.6H64.3122V44H63.7122ZM60.0722 44H59.4722V44.6H60.0722V44ZM60.0722 22.08V21.48H59.4722V22.08H60.0722ZM63.7122 22.08H64.3122V21.48H63.7122V22.08ZM64.2466 25.9129C64.8366 24.7574 65.6653 23.8701 66.7374 23.2366L66.127 22.2034C64.8524 22.9566 63.8678 24.016 63.1778 25.3671L64.2466 25.9129ZM66.7324 23.2395C67.8222 22.6098 69.1667 22.28 70.7922 22.28V21.08C69.0044 21.08 67.4422 21.4435 66.132 22.2005L66.7324 23.2395ZM70.1922 21.68V25.44H71.3922V21.68H70.1922ZM70.7922 24.84H69.8322V26.04H70.7922V24.84ZM69.8322 24.84C67.6866 24.84 65.9707 25.4243 64.801 26.6934C63.6398 27.9532 63.1122 29.7858 63.1122 32.08H64.3122C64.3122 29.9476 64.8046 28.4601 65.6834 27.5066C66.5537 26.5624 67.8978 26.04 69.8322 26.04V24.84ZM63.1122 32.08V44H64.3122V32.08H63.1122ZM63.7122 43.4H60.0722V44.6H63.7122V43.4ZM60.6722 44V22.08H59.4722V44H60.6722ZM60.0722 22.68H63.7122V21.48H60.0722V22.68ZM63.1122 22.08V25.64H64.3122V22.08H63.1122ZM75.1141 17.8L75.5383 17.3757L75.5383 17.3757L75.1141 17.8ZM75.1141 14.28L75.5383 14.7043L75.5383 14.7043L75.1141 14.28ZM78.5541 14.28L78.1179 14.692L78.1237 14.6982L78.1298 14.7043L78.5541 14.28ZM78.5541 17.8L78.1298 17.3757L78.1237 17.3818L78.1179 17.388L78.5541 17.8ZM78.6341 22.08H79.2341V21.48H78.6341V22.08ZM78.6341 44V44.6H79.2341V44H78.6341ZM74.9941 44H74.3941V44.6H74.9941V44ZM74.9941 22.08V21.48H74.3941V22.08H74.9941ZM76.8741 17.92C76.336 17.92 75.9031 17.7405 75.5383 17.3757L74.6898 18.2243C75.285 18.8195 76.0254 19.12 76.8741 19.12V17.92ZM75.5383 17.3757C75.1735 17.0109 74.9941 16.578 74.9941 16.04H73.7941C73.7941 16.8886 74.0946 17.6291 74.6898 18.2243L75.5383 17.3757ZM74.9941 16.04C74.9941 15.502 75.1735 15.0691 75.5383 14.7043L74.6898 13.8557C74.0946 14.4509 73.7941 15.1913 73.7941 16.04H74.9941ZM75.5383 14.7043C75.9031 14.3395 76.336 14.16 76.8741 14.16V12.96C76.0254 12.96 75.285 13.2605 74.6898 13.8557L75.5383 14.7043ZM76.8741 14.16C77.3775 14.16 77.7791 14.3333 78.1179 14.692L78.9903 13.868C78.4223 13.2667 77.704 12.96 76.8741 12.96V14.16ZM78.1298 14.7043C78.4946 15.0691 78.6741 15.502 78.6741 16.04H79.8741C79.8741 15.1913 79.5735 14.4509 78.9783 13.8557L78.1298 14.7043ZM78.6741 16.04C78.6741 16.578 78.4946 17.0109 78.1298 17.3757L78.9783 18.2243C79.5735 17.6291 79.8741 16.8886 79.8741 16.04H78.6741ZM78.1179 17.388C77.7791 17.7467 77.3775 17.92 76.8741 17.92V19.12C77.704 19.12 78.4223 18.8133 78.9903 18.212L78.1179 17.388ZM78.0341 22.08V44H79.2341V22.08H78.0341ZM78.6341 43.4H74.9941V44.6H78.6341V43.4ZM75.5941 44V22.08H74.3941V44H75.5941ZM74.9941 22.68H78.6341V21.48H74.9941V22.68ZM84.8378 27.08L85.3658 27.365L85.3677 27.3615L84.8378 27.08ZM88.5578 23.12L88.2555 22.6017L88.2517 22.604L88.5578 23.12ZM98.8778 22.96L98.5749 23.4779L98.5749 23.4779L98.8778 22.96ZM102.038 26.08L101.513 26.3704L102.638 26.08H102.038ZM102.038 22.08V21.48H101.438V22.08H102.038ZM105.718 22.08H106.318V21.48H105.718V22.08ZM105.718 44V44.6H106.318V44H105.718ZM102.038 44H101.438V44.6H102.038V44ZM102.038 39.92H102.638V37.6295L101.515 39.6258L102.038 39.92ZM98.7978 43.12L99.1007 43.6379L99.1037 43.6362L98.7978 43.12ZM88.5578 42.92L88.2453 43.4322L88.2453 43.4322L88.5578 42.92ZM84.8378 38.88L85.3695 38.6019L85.3695 38.6019L84.8378 38.88ZM98.3178 25.88L98.0109 26.3956L98.0181 26.3998L98.0254 26.4039L98.3178 25.88ZM90.8778 25.84L90.5801 25.3191L90.5801 25.3191L90.8778 25.84ZM88.1978 28.64L88.725 28.9265L88.725 28.9265L88.1978 28.64ZM88.1978 37.36L87.6681 37.6418L87.6706 37.6465L88.1978 37.36ZM90.8778 40.2L90.5709 40.7157L90.5801 40.7209L90.8778 40.2ZM98.3178 40.2L98.6155 40.721L98.6194 40.7187L98.3178 40.2ZM101.038 37.36L101.565 37.6465L101.568 37.6418L101.038 37.36ZM84.0778 32.96C84.0778 30.8022 84.514 28.9434 85.3658 27.365L84.3098 26.795C83.3483 28.5766 82.8778 30.6378 82.8778 32.96H84.0778ZM85.3677 27.3615C86.2257 25.7463 87.3907 24.51 88.8639 23.636L88.2517 22.604C86.5782 23.5967 85.2632 25.0003 84.3079 26.7985L85.3677 27.3615ZM88.8601 23.6383C90.3636 22.7612 92.0317 22.32 93.8778 22.32V21.12C91.8305 21.12 89.952 21.6121 88.2555 22.6017L88.8601 23.6383ZM93.8778 22.32C95.7099 22.32 97.2682 22.7137 98.5749 23.4779L99.1807 22.4421C97.6607 21.553 95.8857 21.12 93.8778 21.12V22.32ZM98.5749 23.4779C99.9087 24.258 100.879 25.2244 101.513 26.3704L102.563 25.7896C101.81 24.4289 100.674 23.3153 99.1807 22.4421L98.5749 23.4779ZM102.638 26.08V22.08H101.438V26.08H102.638ZM102.038 22.68H105.718V21.48H102.038V22.68ZM105.118 22.08V44H106.318V22.08H105.118ZM105.718 43.4H102.038V44.6H105.718V43.4ZM102.638 44V39.92H101.438V44H102.638ZM101.515 39.6258C100.853 40.8019 99.8542 41.7965 98.4919 42.6038L99.1037 43.6362C100.621 42.7368 101.782 41.5981 102.561 40.2142L101.515 39.6258ZM98.4949 42.6021C97.187 43.3671 95.6415 43.76 93.8378 43.76V44.96C95.8207 44.96 97.582 44.5263 99.1007 43.6379L98.4949 42.6021ZM93.8378 43.76C91.9949 43.76 90.3442 43.3071 88.8703 42.4078L88.2453 43.4322C89.9181 44.4529 91.7874 44.96 93.8378 44.96V43.76ZM88.8703 42.4078C87.3957 41.508 86.2289 40.2449 85.3695 38.6019L84.3062 39.1581C85.2601 40.9817 86.5733 42.412 88.2453 43.4322L88.8703 42.4078ZM85.3695 38.6019C84.5133 36.9651 84.0778 35.0893 84.0778 32.96H82.8778C82.8778 35.2573 83.349 37.3282 84.3062 39.1581L85.3695 38.6019ZM102.638 33C102.638 31.265 102.288 29.723 101.565 28.3935L100.511 28.9665C101.121 30.0903 101.438 31.4283 101.438 33H102.638ZM101.565 28.3935C100.848 27.0737 99.8624 26.055 98.6102 25.3561L98.0254 26.4039C99.0666 26.985 99.8946 27.833 100.511 28.9665L101.565 28.3935ZM98.6247 25.3644C97.4077 24.64 96.0609 24.28 94.5978 24.28V25.48C95.8547 25.48 96.9879 25.7866 98.0109 26.3956L98.6247 25.3644ZM94.5978 24.28C93.1393 24.28 91.7958 24.6244 90.5801 25.3191L91.1755 26.3609C92.1999 25.7756 93.3363 25.48 94.5978 25.48V24.28ZM90.5801 25.3191C89.3554 26.0189 88.386 27.0372 87.6706 28.3535L88.725 28.9265C89.343 27.7894 90.1602 26.9411 91.1755 26.3609L90.5801 25.3191ZM87.6706 28.3535C86.9481 29.683 86.5978 31.225 86.5978 32.96H87.7978C87.7978 31.3883 88.1142 30.0503 88.725 28.9265L87.6706 28.3535ZM86.5978 32.96C86.5978 34.7203 86.9475 36.2871 87.6681 37.6418L88.7275 37.0782C88.1148 35.9263 87.7978 34.5597 87.7978 32.96H86.5978ZM87.6706 37.6465C88.385 38.9609 89.3516 39.9898 90.5709 40.7156L91.1847 39.6844C90.164 39.0769 89.344 38.2124 88.725 37.0735L87.6706 37.6465ZM90.5801 40.7209C91.7958 41.4156 93.1393 41.76 94.5978 41.76V40.56C93.3363 40.56 92.1999 40.2644 91.1755 39.6791L90.5801 40.7209ZM94.5978 41.76C96.0563 41.76 97.3999 41.4156 98.6155 40.7209L98.0201 39.6791C96.9958 40.2644 95.8593 40.56 94.5978 40.56V41.76ZM98.6194 40.7187C99.8662 39.9938 100.849 38.9645 101.565 37.6465L100.511 37.0735C99.8936 38.2089 99.0628 39.0729 98.0162 39.6813L98.6194 40.7187ZM101.568 37.6418C102.287 36.2884 102.638 34.7354 102.638 33H101.438C101.438 34.5713 101.122 35.9249 100.508 37.0782L101.568 37.6418ZM111.869 27.08L112.397 27.365L112.399 27.3615L111.869 27.08ZM115.589 23.12L115.287 22.6017L115.283 22.604L115.589 23.12ZM125.709 22.92L125.422 23.4468L125.429 23.4507L125.709 22.92ZM129.069 26L128.556 26.3103L129.669 28.1534V26H129.069ZM129.069 14.4V13.8H128.469V14.4H129.069ZM132.749 14.4H133.349V13.8H132.749V14.4ZM132.749 44V44.6H133.349V44H132.749ZM129.069 44H128.469V44.6H129.069V44ZM129.069 39.88H129.669L128.544 39.5904L129.069 39.88ZM125.869 43.12L126.172 43.638L126.179 43.6336L125.869 43.12ZM115.589 42.92L115.277 43.4322L115.28 43.4345L115.589 42.92ZM111.869 38.88L112.401 38.6019L112.401 38.6019L111.869 38.88ZM125.349 25.88L125.042 26.3956L125.049 26.3998L125.057 26.4039L125.349 25.88ZM117.909 25.84L117.611 25.3191L117.611 25.3191L117.909 25.84ZM115.229 28.64L115.756 28.9265L115.756 28.9265L115.229 28.64ZM115.229 37.36L114.699 37.6418L114.702 37.6465L115.229 37.36ZM117.909 40.2L117.602 40.7157L117.611 40.7209L117.909 40.2ZM125.349 40.2L125.647 40.721L125.651 40.7187L125.349 40.2ZM128.069 37.36L128.596 37.6465L128.599 37.6418L128.069 37.36ZM111.109 32.96C111.109 30.8022 111.545 28.9434 112.397 27.365L111.341 26.795C110.38 28.5766 109.909 30.6378 109.909 32.96H111.109ZM112.399 27.3615C113.257 25.7463 114.422 24.51 115.895 23.636L115.283 22.604C113.609 23.5967 112.294 25.0003 111.339 26.7985L112.399 27.3615ZM115.891 23.6383C117.394 22.762 119.075 22.32 120.949 22.32V21.12C118.877 21.12 116.985 21.6114 115.287 22.6017L115.891 23.6383ZM120.949 22.32C122.558 22.32 124.045 22.6959 125.422 23.4467L125.996 22.3933C124.44 21.5441 122.754 21.12 120.949 21.12V22.32ZM125.429 23.4507C126.81 24.1789 127.845 25.1336 128.556 26.3103L129.583 25.6897C128.747 24.3064 127.541 23.2078 125.989 22.3893L125.429 23.4507ZM129.669 26V14.4H128.469V26H129.669ZM129.069 15H132.749V13.8H129.069V15ZM132.149 14.4V44H133.349V14.4H132.149ZM132.749 43.4H129.069V44.6H132.749V43.4ZM129.669 44V39.88H128.469V44H129.669ZM128.544 39.5904C127.88 40.7952 126.892 41.8015 125.559 42.6064L126.179 43.6336C127.673 42.7318 128.818 41.5781 129.595 40.1696L128.544 39.5904ZM125.566 42.6021C124.258 43.3671 122.713 43.76 120.909 43.76V44.96C122.892 44.96 124.653 44.5263 126.172 43.6379L125.566 42.6021ZM120.909 43.76C119.066 43.76 117.4 43.3071 115.898 42.4055L115.28 43.4345C116.978 44.4529 118.859 44.96 120.909 44.96V43.76ZM115.902 42.4078C114.427 41.508 113.26 40.2449 112.401 38.6019L111.337 39.1581C112.291 40.9817 113.605 42.412 115.277 43.4322L115.902 42.4078ZM112.401 38.6019C111.545 36.9651 111.109 35.0893 111.109 32.96H109.909C109.909 35.2573 110.38 37.3282 111.337 39.1581L112.401 38.6019ZM129.669 33C129.669 31.265 129.319 29.723 128.596 28.3935L127.542 28.9665C128.153 30.0903 128.469 31.4283 128.469 33H129.669ZM128.596 28.3935C127.879 27.0737 126.894 26.055 125.641 25.3561L125.057 26.4039C126.098 26.985 126.926 27.833 127.542 28.9665L128.596 28.3935ZM125.656 25.3644C124.439 24.64 123.092 24.28 121.629 24.28V25.48C122.886 25.48 124.019 25.7866 125.042 26.3956L125.656 25.3644ZM121.629 24.28C120.171 24.28 118.827 24.6244 117.611 25.3191L118.207 26.3609C119.231 25.7756 120.368 25.48 121.629 25.48V24.28ZM117.611 25.3191C116.387 26.0189 115.417 27.0372 114.702 28.3535L115.756 28.9265C116.374 27.7894 117.191 26.9411 118.207 26.3609L117.611 25.3191ZM114.702 28.3535C113.979 29.683 113.629 31.225 113.629 32.96H114.829C114.829 31.3883 115.145 30.0503 115.756 28.9265L114.702 28.3535ZM113.629 32.96C113.629 34.7203 113.979 36.2871 114.699 37.6418L115.759 37.0782C115.146 35.9263 114.829 34.5597 114.829 32.96H113.629ZM114.702 37.6465C115.416 38.9609 116.383 39.9898 117.602 40.7156L118.216 39.6844C117.195 39.0769 116.375 38.2124 115.756 37.0735L114.702 37.6465ZM117.611 40.7209C118.827 41.4156 120.171 41.76 121.629 41.76V40.56C120.368 40.56 119.231 40.2644 118.207 39.6791L117.611 40.7209ZM121.629 41.76C123.088 41.76 124.431 41.4156 125.647 40.7209L125.051 39.6791C124.027 40.2644 122.891 40.56 121.629 40.56V41.76ZM125.651 40.7187C126.897 39.9938 127.88 38.9645 128.596 37.6465L127.542 37.0735C126.925 38.2089 126.094 39.0729 125.047 39.6813L125.651 40.7187ZM128.599 37.6418C129.319 36.2884 129.669 34.7354 129.669 33H128.469C128.469 34.5713 128.153 35.9249 127.539 37.0782L128.599 37.6418Z" fill="black" mask="url(#path-7-outside-3_4_27)"/>
</svg>
